<svg xmlns="http://www.w3.org/2000/svg" xmlns:xlink="http://www.w3.org/1999/xlink" width="323.203" height="323.203" viewBox="0 0 323.203 323.203">
  <defs>
    <clipPath id="clip-path">
      <rect id="Rectangle_1645" data-name="Rectangle 1645" width="263.14" height="76.094" fill="none"/>
    </clipPath>
  </defs>
  <g id="Group_675" data-name="Group 675" transform="translate(-1128 -214.342)">
    <rect id="Rectangle_1408" data-name="Rectangle 1408" width="323.203" height="323.203" rx="24" transform="translate(1128 214.342)" fill="#fff"/>
    <g id="Saris_Bike_Racks_-_Trainers" data-name="Saris Bike Racks - Trainers" transform="translate(1158.031 338.502)">
      <g id="Group_674" data-name="Group 674" transform="translate(0 0)" clip-path="url(#clip-path)">
        <path id="Path_83173" data-name="Path 83173" d="M62.387,14.834l-4.16-2.4c-.123.763-.867,1.35-1.766,2.045-.672.52-7.246,5.125-7.246,5.125H20.663a4.42,4.42,0,0,0-2.938,1.2,4.05,4.05,0,0,0-1.105,2.772,3.865,3.865,0,0,0,1.129,2.8S39.695,46.049,43.8,49.27c.585.46.558,1.562-.849,1.562H31.851c-2.788-2.446-16.226-14.356-20.132-17.817l-.041-.038A13.007,13.007,0,0,1,8.7,28.7,12.85,12.85,0,0,1,7.65,23.572,12.586,12.586,0,0,1,8.623,18.6a14.067,14.067,0,0,1,2.765-4.221,13.393,13.393,0,0,1,9.271-3.748H55.108L39.158,1.422a10.617,10.617,0,0,0-10.619,0L5.31,14.834A10.62,10.62,0,0,0,0,24.031V50.854a10.62,10.62,0,0,0,5.31,9.2l4.159,2.4c.123-.763.867-1.349,1.766-2.044l7.246-5.125H47.034a4.409,4.409,0,0,0,2.938-1.2,4.041,4.041,0,0,0,1.105-2.771,3.862,3.862,0,0,0-1.128-2.8S28,28.836,23.9,25.614c-.584-.46-.557-1.562.849-1.562h11.1C38.636,26.5,52.074,38.408,55.979,41.869l.042.038A12.994,12.994,0,0,1,59,46.188a12.834,12.834,0,0,1,1.049,5.125,12.617,12.617,0,0,1-.974,4.971A14.067,14.067,0,0,1,56.309,60.5a13.393,13.393,0,0,1-9.271,3.748H12.585l15.95,9.208a10.617,10.617,0,0,0,10.619,0L62.387,60.05a10.621,10.621,0,0,0,5.306-9.2V24.031a10.62,10.62,0,0,0-5.31-9.2" transform="translate(0 0)" fill="#ffc000"/>
        <path id="Path_83174" data-name="Path 83174" d="M228.137,17.9H221.21a2.1,2.1,0,0,0-2.326,1.857c-.007.058-.01.116-.012.174V56.666a2.107,2.107,0,0,0,2.165,2.045c.058,0,.116-.006.174-.012h6.928a2.106,2.106,0,0,0,2.326-1.859c.007-.058.01-.115.012-.174V19.927a2.1,2.1,0,0,0-2.164-2.044c-.058,0-.116.006-.174.012" transform="translate(-10.195 -0.833)" fill="#030404"/>
        <path id="Path_83175" data-name="Path 83175" d="M266.2,36.871l-15.159-4.677c-1.693-.541-1.994-.969-1.994-1.907V29.075c0-1.306.919-2.15,2.648-2.15h14.689c1.728,0,7.992-9.075,5-9.075h-22.6c-7.6,0-11.288,2.989-11.288,9.137V30.84c0,5.3,3.064,7.308,8.009,8.834l15.159,4.677c1.692.542,1.994.97,1.994,1.907v.925c0,1.306-.257,2.15-1.986,2.15H243.48c-3.217,0-6.394,9.365-4.935,9.365h24.368c7.6,0,11.289-2.989,11.289-9.137V45.7c0-5.3-3.064-7.308-8.009-8.834" transform="translate(-11.062 -0.831)" fill="#030404"/>
        <path id="Path_83176" data-name="Path 83176" d="M154.5,19.688a2.907,2.907,0,0,0-2.983-1.793H143.2a2.909,2.909,0,0,0-2.986,1.8l-8.655,21.851-4.7-.023a1.325,1.325,0,0,0-1.155.542,1.493,1.493,0,0,0-.082,1.407l2.654,6.324-2.611,6.632a1.646,1.646,0,0,0,.072,1.557,1.736,1.736,0,0,0,1.525.714h7.617c2.085,0,2.774-1.15,3-1.82l2.279-6.376.244-.682,8.592-.017c.7.013.965-.508.707-1.177l-2.021-5.662c-.4-1.028-.78-1.478-1.735-1.478l-2.486.035,3.9-10.88,3.981,10.991,3.217,8.867,2.288,6.4a2.905,2.905,0,0,0,2.982,1.793h7.621a1.746,1.746,0,0,0,1.513-.731,1.621,1.621,0,0,0,.086-1.536Z" transform="translate(-5.845 -0.833)" fill="#030404"/>
        <path id="Path_83177" data-name="Path 83177" d="M112.268,36.871,97.108,32.193c-1.693-.541-1.994-.969-1.994-1.907V29.075c0-1.306.919-2.15,2.648-2.15h14.689c1.728,0,7.992-9.075,5-9.075h-22.6c-7.6,0-11.289,2.989-11.289,9.137V30.84c0,5.3,3.064,7.308,8.009,8.834l15.159,4.677c1.692.542,1.994.97,1.994,1.907v.925c0,1.306-.257,2.15-1.986,2.15H89.552c-3.217,0-6.394,9.365-4.935,9.365h24.369c7.6,0,11.289-2.989,11.289-9.137V45.7c0-5.3-3.064-7.308-8.009-8.834" transform="translate(-3.892 -0.831)" fill="#030404"/>
        <path id="Path_83178" data-name="Path 83178" d="M204.965,45.516c1.928-.5,5.4-2.32,5.4-8.632v-9.61c0-6.311-3.957-9.379-8.861-9.379H177.132a2.105,2.105,0,0,0-2.325,1.858c-.007.058-.011.115-.012.174V56.666a2.106,2.106,0,0,0,2.164,2.045c.057,0,.115-.006.174-.012h6.928a2.105,2.105,0,0,0,2.325-1.858c.007-.058.01-.116.012-.174v-29.9h10.321c1.737,0,2.86.866,2.86,2.207v6.217c0,1.341-1.123,2.206-2.86,2.206H192.2a1.823,1.823,0,0,0-1.621,2.569c.089.185,9.5,16.8,9.5,16.8A3.3,3.3,0,0,0,202.4,58.7h7.481a1.88,1.88,0,0,0,1.614-.872,1.447,1.447,0,0,0-.051-1.473Z" transform="translate(-8.142 -0.833)" fill="#030404"/>
        <path id="Path_83179" data-name="Path 83179" d="M85.577,68.827a.36.36,0,0,1,.381-.38h4.731a2.071,2.071,0,0,1,2.366,2.365V71.8a1.44,1.44,0,0,1-.993,1.526v.152a1.822,1.822,0,0,1,1.525,1.832v1.45a2.071,2.071,0,0,1-2.364,2.365H85.958a.36.36,0,0,1-.381-.381Zm2.289,1.679v2.06H90a.721.721,0,0,0,.763-.763V71.27A.721.721,0,0,0,90,70.506Zm2.671,6.562a.721.721,0,0,0,.764-.763v-.993a.722.722,0,0,0-.764-.763H87.866v2.518Z" transform="translate(-3.986 -3.188)" fill="#1a1818"/>
        <rect id="Rectangle_1643" data-name="Rectangle 1643" width="2.289" height="10.682" rx="0.4" transform="translate(92.132 65.258)" fill="#1a1818"/>
        <path id="Path_83180" data-name="Path 83180" d="M104.458,72.49h1.45l1.678-3.663a.533.533,0,0,1,.535-.38H109.8a.244.244,0,0,1,.228.38l-2.136,4.655,2.441,5.265c.107.23-.076.382-.305.382H108.5a.631.631,0,0,1-.609-.382l-1.908-4.2h-1.526v4.2a.361.361,0,0,1-.381.382H102.55a.361.361,0,0,1-.381-.382V68.827a.36.36,0,0,1,.381-.38h1.526a.36.36,0,0,1,.381.38Z" transform="translate(-4.759 -3.188)" fill="#1a1818"/>
        <path id="Path_83181" data-name="Path 83181" d="M115.082,77.069h4.883a.36.36,0,0,1,.381.381v1.3a.36.36,0,0,1-.381.381h-6.791a.36.36,0,0,1-.381-.381v-9.92a.36.36,0,0,1,.381-.38h6.639a.36.36,0,0,1,.381.38v1.3a.36.36,0,0,1-.381.38h-4.731v2.137h3.587a.36.36,0,0,1,.38.382v1.3a.36.36,0,0,1-.38.382h-3.587Z" transform="translate(-5.254 -3.188)" fill="#1a1818"/>
        <path id="Path_83182" data-name="Path 83182" d="M133.545,75.619l1.526,3.129a.257.257,0,0,1-.229.381h-1.648a.546.546,0,0,1-.564-.381l-1.373-2.977h-1.984v2.977a.36.36,0,0,1-.381.381h-1.526a.36.36,0,0,1-.381-.381v-9.92a.36.36,0,0,1,.381-.38h5.265A2.07,2.07,0,0,1,135,70.811v2.6c0,2.059-1.45,2.212-1.45,2.212m-4.272-5.112v3.2h2.671a.721.721,0,0,0,.764-.762V71.27a.722.722,0,0,0-.764-.764Z" transform="translate(-5.915 -3.188)" fill="#1a1818"/>
        <path id="Path_83183" data-name="Path 83183" d="M140.054,76.915l-.534,1.832a.5.5,0,0,1-.534.381h-1.679c-.2,0-.305-.153-.229-.381l3.2-9.919a.509.509,0,0,1,.534-.381h1.831a.508.508,0,0,1,.534.381l3.205,9.919c.076.229-.046.381-.23.381H144.48a.507.507,0,0,1-.534-.381l-.534-1.832Zm2.747-2.059L141.81,71.5h-.153l-.992,3.357Z" transform="translate(-6.384 -3.188)" fill="#1a1818"/>
        <path id="Path_83184" data-name="Path 83184" d="M156.966,71.644a.36.36,0,0,1-.38.38h-1.527a.36.36,0,0,1-.38-.38v-.535a.721.721,0,0,0-.764-.763H151.7a.721.721,0,0,0-.764.763v5.342a.721.721,0,0,0,.764.763h2.212a.722.722,0,0,0,.764-.763v-.535a.36.36,0,0,1,.38-.381h1.527a.36.36,0,0,1,.38.381v.992a2.071,2.071,0,0,1-2.364,2.366h-3.587a2.072,2.072,0,0,1-2.366-2.366V70.651a2.071,2.071,0,0,1,2.366-2.364H154.6a2.07,2.07,0,0,1,2.364,2.364Z" transform="translate(-6.924 -3.181)" fill="#1a1818"/>
        <path id="Path_83185" data-name="Path 83185" d="M162.393,72.49h1.45l1.678-3.663a.533.533,0,0,1,.535-.38h1.679a.244.244,0,0,1,.228.38l-2.136,4.655,2.441,5.265c.107.23-.076.382-.305.382h-1.526a.631.631,0,0,1-.609-.382l-1.908-4.2h-1.526v4.2a.361.361,0,0,1-.381.382h-1.526a.361.361,0,0,1-.381-.382V68.827a.36.36,0,0,1,.381-.38h1.526a.36.36,0,0,1,.381.38Z" transform="translate(-7.457 -3.188)" fill="#1a1818"/>
        <path id="Path_83186" data-name="Path 83186" d="M175.97,75.993c0-.381-.153-.535-.535-.687l-3.357-1.3A2.148,2.148,0,0,1,170.4,71.72V70.65a2.071,2.071,0,0,1,2.366-2.364h2.976a2.071,2.071,0,0,1,2.365,2.364v.993a.36.36,0,0,1-.381.381H176.2a.36.36,0,0,1-.381-.381v-.534a.721.721,0,0,0-.763-.764h-1.6a.721.721,0,0,0-.763.764v.458c0,.381.152.534.534.686l3.358,1.3a2.149,2.149,0,0,1,1.678,2.29v1.068a2.071,2.071,0,0,1-2.365,2.365h-3.281a2.071,2.071,0,0,1-2.365-2.365v-.992a.36.36,0,0,1,.38-.381h1.526a.36.36,0,0,1,.381.381v.534a.721.721,0,0,0,.764.763h1.908a.721.721,0,0,0,.763-.763Z" transform="translate(-7.93 -3.18)" fill="#1a1818"/>
        <path id="Path_83187" data-name="Path 83187" d="M188.068,74.923c0,.686-.381,1.068-1.145,1.068h-.458c-.763,0-1.145-.381-1.145-1.068v-.687c0-.686.382-1.068,1.145-1.068h.458c.764,0,1.145.382,1.145,1.068Z" transform="translate(-8.632 -3.408)" fill="#1a1818"/>
        <path id="Path_83188" data-name="Path 83188" d="M199.423,78.747a.36.36,0,0,1-.381.381h-1.526a.36.36,0,0,1-.381-.381V70.505h-2.442a.36.36,0,0,1-.381-.38v-1.3a.36.36,0,0,1,.381-.381h7.173a.36.36,0,0,1,.381.381v1.3a.36.36,0,0,1-.381.38h-2.442Z" transform="translate(-9.051 -3.188)" fill="#1a1818"/>
        <path id="Path_83189" data-name="Path 83189" d="M211.288,75.619l1.526,3.129a.257.257,0,0,1-.229.381h-1.648a.546.546,0,0,1-.564-.381L209,75.771h-1.984v2.977a.36.36,0,0,1-.381.381h-1.526a.36.36,0,0,1-.381-.381v-9.92a.36.36,0,0,1,.381-.38h5.265a2.07,2.07,0,0,1,2.365,2.364v2.6c0,2.059-1.45,2.212-1.45,2.212m-4.272-5.112v3.2h2.671a.721.721,0,0,0,.764-.762V71.27a.722.722,0,0,0-.764-.764Z" transform="translate(-9.536 -3.188)" fill="#1a1818"/>
        <path id="Path_83190" data-name="Path 83190" d="M217.8,76.915l-.534,1.832a.5.5,0,0,1-.534.381h-1.679c-.2,0-.305-.153-.229-.381l3.2-9.919a.509.509,0,0,1,.534-.381h1.832a.508.508,0,0,1,.534.381l3.205,9.919c.076.229-.046.381-.23.381h-1.678a.507.507,0,0,1-.534-.381l-.534-1.832Zm2.747-2.059-.992-3.357H219.4l-.992,3.357Z" transform="translate(-10.005 -3.188)" fill="#1a1818"/>
        <rect id="Rectangle_1644" data-name="Rectangle 1644" width="2.289" height="10.682" rx="0.4" transform="translate(215.999 65.258)" fill="#1a1818"/>
        <path id="Path_83191" data-name="Path 83191" d="M238.192,75.085V68.828a.359.359,0,0,1,.38-.381H240.1a.36.36,0,0,1,.381.381v9.919a.36.36,0,0,1-.381.381h-1.907c-.305,0-.413-.153-.535-.381l-3.128-6.257h-.153v6.257a.36.36,0,0,1-.381.381h-1.526a.36.36,0,0,1-.381-.381V68.828a.36.36,0,0,1,.381-.381h1.908c.305,0,.412.152.535.381l3.128,6.256Z" transform="translate(-10.81 -3.188)" fill="#1a1818"/>
        <path id="Path_83192" data-name="Path 83192" d="M246.312,77.069H251.2a.36.36,0,0,1,.381.381v1.3a.36.36,0,0,1-.381.381H244.4a.36.36,0,0,1-.381-.381v-9.92a.36.36,0,0,1,.381-.38h6.639a.36.36,0,0,1,.381.38v1.3a.36.36,0,0,1-.381.38h-4.731v2.137H249.9a.36.36,0,0,1,.38.382v1.3a.36.36,0,0,1-.38.382h-3.587Z" transform="translate(-11.366 -3.188)" fill="#1a1818"/>
        <path id="Path_83193" data-name="Path 83193" d="M260.84,75.619l1.526,3.129a.257.257,0,0,1-.229.381H260.49a.546.546,0,0,1-.564-.381l-1.373-2.977h-1.984v2.977a.36.36,0,0,1-.381.381H254.66a.36.36,0,0,1-.381-.381v-9.92a.36.36,0,0,1,.381-.38h5.265a2.07,2.07,0,0,1,2.365,2.364v2.6c0,2.059-1.45,2.212-1.45,2.212m-4.272-5.112v3.2h2.671a.721.721,0,0,0,.764-.762V71.27a.722.722,0,0,0-.764-.764Z" transform="translate(-11.844 -3.188)" fill="#1a1818"/>
        <path id="Path_83194" data-name="Path 83194" d="M270.785,75.993c0-.381-.153-.535-.535-.687l-3.357-1.3a2.148,2.148,0,0,1-1.679-2.288V70.65a2.071,2.071,0,0,1,2.366-2.364h2.976a2.071,2.071,0,0,1,2.365,2.364v.993a.36.36,0,0,1-.381.381h-1.526a.36.36,0,0,1-.381-.381v-.534a.721.721,0,0,0-.763-.764h-1.6a.721.721,0,0,0-.763.764v.458c0,.381.153.534.534.686l3.358,1.3a2.149,2.149,0,0,1,1.678,2.29v1.068a2.071,2.071,0,0,1-2.365,2.365h-3.281a2.071,2.071,0,0,1-2.365-2.365v-.992a.36.36,0,0,1,.38-.381h1.526a.36.36,0,0,1,.381.381v.534a.721.721,0,0,0,.764.763h1.908a.721.721,0,0,0,.763-.763Z" transform="translate(-12.346 -3.18)" fill="#1a1818"/>
      </g>
    </g>
  </g>
</svg>
